<?xml version="1.0" encoding="utf-8"?>
<!-- Generator: Adobe Illustrator 22.1.0, SVG Export Plug-In . SVG Version: 6.00 Build 0)  -->
<svg version="1.1" id="Layer_1" xmlns="http://www.w3.org/2000/svg" xmlns:xlink="http://www.w3.org/1999/xlink" x="0px" y="0px"
	 viewBox="0 0 492.3 211.4" style="enable-background:new 0 0 492.3 211.4;" xml:space="preserve">
<style type="text/css">
	.st0{fill:#353535;}
	.st1{fill:#7BB827;}
	.st2{fill:#7DB92A;}
	.st3{fill:#7EB92B;}
	.st4{fill:#020202;}
	.st5{fill:#010101;}
	.st6{fill:#040404;}
	.st7{fill:#0E0E0E;}
	.st8{fill:#090909;}
	.st9{fill:#050505;}
	.st10{fill:#FCFCFC;}
	.st11{fill:#FEFEFE;}
	.st12{fill:#FDFDFD;}
</style>
<g>
	<path class="st0" d="M0.1,75.4c-0.5-8.8,1.1-20.2,2.1-31.6C3.1,33.2,4.9,22.6,6.3,12c0.2-1.7,0.5-3.5,0.3-5.2
		C6.4,3.5,8.6,1.8,11.1,2c5.3,0.5,10.1-2,15.3-1.9c2.5,0,5-0.2,7.6,0.1c4.2,0.5,6.6,2.6,6.9,6.7c0.4,4.8,0.2,9.7-1.1,14.4
		c-1.1,3.9-1.2,7.9-1.8,11.9c-3.6,21.8-5.6,43.8-3.8,66c0.3,3.5,1.4,6.9,3,10.2c1.4,2.9,3.9,4.4,6.7,5.6c2.3,1,4.1-0.6,5.4-2.1
		c6.7-7.7,11.7-16.2,11.9-26.8c0.1-6.2,1.2-12.3,2-18.5c0.5-3.5,0.4-7.1,0.2-10.7c-0.4-6.1,2-8.8,7.9-8.1c5.4,0.7,10.8,1.7,15.8,4.2
		c7,3.5,8.3,9.2,7.5,16.8c-1.6,15-3.7,29.9-2.7,45.1c0.1,1.1,0.3,2.3,0.6,3.4c1.7,5.2,5.8,6.6,10.1,3.2c2.2-1.7,4-3.8,5.6-6.1
		c4.3-6.2,7.9-12.6,10.4-19.8c1-2.8,0.8-5.7,0.8-8.5c0.3-9.4,1.9-18.7,3.4-28c0.5-2.7,0.6-5.5-0.2-8.2c-0.6-2.1,0.5-3.4,2.5-3.7
		c5.4-0.7,10.7-0.7,16,1c2.4,0.8,4.8,1.4,7,2.5c3.7,1.8,5,4.5,4.3,8.7c-0.7,4.4-1.2,8.9-1.6,13.4c-0.1,0.9-0.6,2.4,0.8,2.6
		c1.2,0.2,1.4-1.3,1.9-2.1c3.3-5.5,6-11.5,10.1-16.4c5.8-6.9,13.2-9.8,22.1-7.3c3.4,1,7,0.9,10.3,2.5c5.4,2.5,8,5.7,8,11.5
		c0,3.5-0.3,6.9-0.5,10.4c0,0.7-0.7,1.8,0.3,2.2c1.1,0.4,1.5-0.7,2.1-1.4c2-2.4,3.7-5,5.9-7.2c4-4.1,7.5-8.8,13.1-10.8
		c3.8-1.4,7.8-3,12-1.5c2.4,0.8,4.8,0.4,7.3,1.7c5.6,3.1,8.4,7.9,9.8,13.7c1.6,6.5,0.3,12.7-1,19.1c-1.4,6.9-3.1,13.7-2.7,20.8
		c0.2,2.7,0.6,5.3,3.1,6.4c2.7,1.2,4.8-0.5,6.7-2.4c4-4.1,6.4-8.6,5.7-14.8c-1.7-15.8,2.2-30.1,12.3-42.6c3.5-4.4,8.1-7.4,13.3-9.5
		c2.3-0.9,5.3-1.1,7.5-0.1c4.6,2.1,9.5,1.6,14.1,1.8c7.1,0.4,13.4,2.4,18.2,7.5c4.7,4.9,7.6,10.8,8,17.8c0.5,9.4-1.2,18.3-7.3,25.9
		c-4.8,6-11.1,9.5-19,9.1c-3.7-0.2-7.5,0.7-11.2-1.1c-2.1-1-3.2,0.4-2.4,2.8c1.6,5.1,5.3,8.5,9.9,10.4c10.6,4.5,23.4,2,31.2-6.5
		c4.1-4.5,7.1-9.9,9.2-15.7c0.6-1.6,0.6-4.2,2.6-4.4c2-0.2,2.8,2.1,3.9,3.5c3.5,4.8,3.7,10.1,1.2,15.3
		c-5.1,10.5-12.4,18.3-23.8,22.6c-9.1,3.5-18.3,3.6-27.4,2.8c-9.3-0.9-18.6-3.6-26.2-10c-2.3-2-3.8-4.5-5.9-6.7
		c-2.6-2.7-3.2-2.8-5,0.3c-3.2,5.4-7.4,9.6-13,12.3c-10.1,4.8-26.2,5-34.4-6.2c-3.4-4.6-5.2-9.9-5.4-15.7c-0.2-7.2,1-14.2,3-21.1
		c0.5-1.7,0.8-3.3,0.8-5.1c0-1.6-0.6-2.7-1.9-3.4c-1.3-0.7-2.2,0.3-3.1,0.9c-4.3,3.2-6.6,7.9-8.7,12.6c-3.8,8.6-6.3,17.5-7.1,26.9
		c-0.5,5.8-4.3,10-11.8,10.2c-4.1,0.1-8-0.5-11.8-1.9c-5.5-2-7.2-6.9-8.5-11.8c-2.3-8.4-1-16.8,0.9-25.2c1-4.5,1.8-9,2.5-13.5
		c0.4-2.2-0.1-4.4-2.3-5.3c-2.2-1-3.4,1.1-4.3,2.6c-10.3,15.6-15.4,32.5-11.5,51.3c0.6,3-0.4,5.1-2.9,6.3c-9.2,4.2-22.7,1-26.9-9.9
		c-0.7-1.8-1.1-4.6-2.7-4.8c-2.2-0.3-3.4,2.4-4.5,4.2c-3.1,5-7.7,7.7-13.1,9.9c-6.3,2.5-12.8,2.3-19,1.3
		c-6.9-1.1-12.9-4.6-16.3-11.3c-0.8-1.6-1.8-3.2-2.7-4.8c-1.6-3.1-2.7-3.2-4.8-0.4c-3.6,4.6-7.1,9.2-12.2,12.4
		c-11.9,7.4-26.7,5.6-35.7-4.9c-4.2-4.9-6.7-10.9-8.4-17.2C0.3,100.5-0.2,89.4,0.1,75.4z"/>
	<path class="st1" d="M492.3,114.5c-0.3,13.2-6.2,33.3-18.6,51.6c-8.1,11.9-18.5,21.1-30.3,29.2c-14.8,10.1-31.4,14.3-48.9,15.9
		c-4.1,0.4-4.1,0.3-4.1-3.8c0-2.5-1.1-5.9,0.5-7.4c1.5-1.4,4.8-0.7,7.3-1.1c14.3-1.9,27.5-6.8,39.7-14.4c6.6-4.1,12.7-9,17.8-14.9
		c11.6-13.2,19.8-28.3,23-45.7c4.6-24.6,0.4-47.6-12.7-69c-6.5-10.6-15.1-18.9-24.9-26.3c-14.5-10.9-30.9-16-48.7-16.8
		c-1.7-0.1-2.2-0.6-2.1-2.3c0.1-2.5,0.1-4.9,0-7.4c-0.1-1.9,0.6-2.3,2.4-2.2c19.8,0.7,37.9,6.5,54.2,17.7
		c13.1,9,23.8,20.6,31.6,34.4C487.7,68.7,492.5,86.6,492.3,114.5z"/>
	<path class="st1" d="M435.1,102.7c-8.1,0-16.1,0-24.2,0c-2.9,0-5.6-0.6-6.8-3.6c-1.3-3-0.1-5.4,2-7.7
		c10.9-11.4,22.1-22.6,33.3-33.8c5.8-5.7,7.6-6.4,13.2,1.2c8,10.8,12.2,23.2,14.2,36.4c0.6,4.3-2,7.4-6.6,7.4
		C451.9,102.7,443.5,102.7,435.1,102.7z"/>
	<path class="st0" d="M96.5,22.3c0.4,3.9-0.7,7.6-1.4,11.3c-0.8,4.2-4.4,8-9.6,8.2c-11.2,0.3-19.3-6.5-21-17.8
		c-0.9-6.2-0.3-11.6,5.1-15.7c8.4-6.4,24.5-2.3,26.6,8.5C96.5,18.6,96.3,20.4,96.5,22.3z"/>
	<path class="st2" d="M435.1,108c7.8,0,15.5,0.1,23.3-0.1c5.4-0.1,9.3,1.8,8.1,9.3c-2.1,13.3-6.7,25.6-14.9,36.4
		c-3.5,4.6-7,5-11,0.9c-11.7-11.8-23.3-23.7-35-35.5c-2.2-2.2-2.6-4.6-1.4-7.5c1.2-2.8,3.3-3.6,6.1-3.6
		C418.6,108,426.8,108,435.1,108z"/>
	<path class="st3" d="M391.4,153.1c0-8.6,0-17.1,0-25.7c0-2.7,0.8-4.9,3.4-5.9c2.6-1.1,5-0.6,7,1.4c11.9,12.1,23.9,24.2,35.7,36.3
		c2.9,3,2.6,7.5-1,10.3c-11.1,8.6-23.7,13.9-37.7,15.4c-5.6,0.6-7.4-1.3-7.4-7.1C391.4,169.6,391.4,161.3,391.4,153.1z"/>
	<path class="st2" d="M391.4,57.9c0-8.2,0-16.3,0-24.5c0-6,2.4-8.1,8.5-7.2c11.5,1.7,22.2,5.6,32,12.1c1.8,1.2,3.6,2.4,5.3,3.7
		c3.1,2.5,3.2,6.3,0.6,9.3c-7.8,8.8-16.4,16.8-24.7,25.2c-3.7,3.7-7.2,7.5-10.7,11.3c-2.1,2.2-4.4,3.2-7.4,2
		c-2.9-1.2-3.5-3.6-3.5-6.5C391.4,74.8,391.4,66.4,391.4,57.9z"/>
	<path class="st4" d="M185.8,180.2c4.8-5.7,10.4-5.4,15.4,1.2c1.8-3.5,4.5-5.6,8.4-5.2c4.8,0.4,7.6,3.5,7.7,8.9
		c0.2,7.8,0.1,15.7,0.1,23.5c0,0.9,0.5,2.2-1.3,2.1c-1.6-0.1-1.4-1.2-1.4-2.2c0-7.6,0-15.2-0.1-22.8c-0.1-5.1-2.3-7-7.3-6.8
		c-3.5,0.1-5.7,2.4-5.8,6.7c-0.2,6.9-0.1,13.8-0.1,20.7c0,0.8,0,1.6,0,2.4c0,1.2-0.1,2-1.6,2c-1.6-0.1-1-1.3-1.1-2
		c0-6.8,0-13.6,0-20.4c0-1,0-2.1,0-3.1c-0.2-4.2-2.2-6.3-6.1-6.3c-4.4-0.1-6.8,1.9-7,6.2c-0.2,7.1-0.1,14.3-0.1,21.4
		c0,0.8,0,1.6,0,2.4c0,1-0.1,1.8-1.5,1.8c-1.5,0-1.3-1-1.3-1.8c0-10,0-20,0-30.1c0-0.7-0.5-1.8,0.7-1.9c1-0.1,1.3,0.8,1.4,1.6
		C185,179.1,185,179.6,185.8,180.2z"/>
	<path class="st5" d="M277.4,205.6c2-6.1,2.8-12.3,4.3-18.4c0.7-2.9,1.4-5.8,2-8.7c0.2-1,0.4-1.9,1.7-1.6c1.5,0.4,0.6,1.6,0.4,2.2
		c-2.3,9.9-4.6,19.8-7,29.7c-0.2,0.9-0.4,1.9-1.9,1.9c-1.6,0-1.6-1.1-1.8-2c-1.7-7.4-3.4-14.7-5.1-22.1c-0.3-1.2-0.6-2.4-1.2-4.5
		c-2.1,4.5-2.6,8.6-3.6,12.6c-1.2,4.7-2.3,9.3-3.4,14c-0.2,1.1-0.3,2-1.8,2c-1.4,0-1.6-0.9-1.9-2c-2.3-9.9-4.6-19.9-6.8-29.8
		c-0.1-0.6-1-1.9,0.7-2.1c1.2-0.2,1.8,0.3,2.1,1.6c1.6,7.7,3.2,15.5,4.9,23.2c0.2,1,0.2,2.5,1.2,2.6c1.6,0.1,1.3-1.5,1.5-2.6
		c1.8-7.3,3.6-14.7,5.3-22c0.3-1.2,0.4-2.3,2-2.2c1.5,0.1,1.4,1.1,1.7,2.2c1.8,7.7,3.6,15.4,5.3,23.1
		C276.3,203.7,276.5,204.7,277.4,205.6z"/>
	<path class="st4" d="M169.5,206.5c-2.4,3.2-5,5.6-9,4.6c-6.1-1.5-8.5-9.4-4.7-15.1c2.7-4.1,6.7-4.8,11-4.6c2.4,0.1,3.4-0.5,2.9-3
		c-0.1-0.3,0-0.7,0-1c0.6-9-4.2-9.1-10.7-8.2c-1,0.1-2.4,1.5-2.8-0.1c-0.5-1.8,1.3-2.1,2.7-2.3c1-0.2,2-0.6,3-0.6
		c7.1-0.1,10.3,2.2,10.5,8.8c0.2,6.3,0,12.7,0.1,19c0,2-0.1,4.2,2.9,3.9c0.8-0.1,1.2,0.4,1.2,1.3c0,1.1-0.8,1.4-1.6,1.4
		C172.1,210.8,170.4,209.3,169.5,206.5z"/>
	<path class="st4" d="M236.3,194.8c-0.6,0-1.2-0.2-1.7,0c-2,0.9-5.9-2.3-6.2,1.9c-0.6,7.1,2.4,11.6,7.2,11.8c2,0.1,4.1,0.4,6.1-0.5
		c0.5-0.2,1.6-1,2,0.3c0.4,1.3-0.5,1.9-1.5,2.2c-7.5,2-14.4,0-16-8.6c-1.2-6.1-1.2-12.1,0.4-18.1c1.4-5.1,5.4-8.2,9.7-7.7
		c4.7,0.5,7.7,3.9,8.3,9.4C245.5,194.8,245.5,194.8,236.3,194.8z"/>
	<path class="st5" d="M313.6,193.9c0,3,0,6-0.7,8.9c-1.3,5.2-5.4,8.6-10.3,8.6c-5.1-0.1-8.8-3.2-9.9-8.7c-1.2-6-1.2-12.1,0.1-18.1
		c1.1-5.3,5.4-8.6,10.3-8.4c5,0.2,8.5,3.3,9.8,8.6C313.6,187.7,313.6,190.8,313.6,193.9z"/>
	<path class="st6" d="M118.6,200.2c0,2.6,0.1,5.3,0,7.9c0,0.9,0.9,2.5-1.2,2.5c-1.9,0-1.4-1.5-1.4-2.5c0-10.8,0-21.6,0-32.5
		c0-3.2,0.1-6.4,0-9.7c-0.1-1.7,0.4-2.5,2.3-2.4c4.1,0.1,8.3,0,12.4,0c1,0,2.2-0.3,2.3,1.3c0.1,1.9-1.4,1.5-2.5,1.5c-3,0-6,0.2-9,0
		c-2.5-0.2-3,0.8-2.9,3.1c0.2,4.6,0.3,9.2,0,13.8c-0.2,2.9,0.9,3.5,3.5,3.3c2.2-0.2,4.4-0.1,6.6,0c1.1,0.1,2.9-0.8,2.9,1.3
		c0.1,2.4-2,1.4-3.1,1.4c-2.3,0.1-4.6,0.2-6.9,0c-2.6-0.3-3.1,0.8-2.9,3.1C118.7,194.9,118.6,197.6,118.6,200.2z"/>
	<path class="st4" d="M54.8,173.8c-0.4,3.6,1.2,6.4,4,8.6c2.1,1.6,4.3,3.1,6.3,4.8c5,4.2,6.9,11,4.9,17.1c-1.5,4.6-7.3,7.9-12.5,6.9
		c-1.7-0.3-3.3-0.8-5-1.3c-1-0.3-1-1.3-0.8-2c0.4-1.1,1.1-0.3,1.7-0.1c1.1,0.3,2.2,0.7,3.3,0.8c4.1,0.2,8.2,0.5,10.4-4
		c2-4.2,0.7-11.2-2.7-14.4c-2.4-2.1-5.1-4-7.6-5.9c-4.4-3.4-5.5-8.1-4.5-13.3c1.1-6.2,6.6-8.6,12.2-7.7c1.6,0.3,5-0.3,4.6,2.2
		c-0.4,2.7-2.8-0.2-4.5,0.2c-2.3,0.5-4.8-0.3-7,1.2C55.1,168.5,54.6,171,54.8,173.8z"/>
	<path class="st4" d="M16.2,199.5c0-4.5-1.5-8.3-5.3-10.9c-2-1.4-3.9-2.9-5.8-4.4c-4-3.1-5.3-7.4-4.8-12.3
		c0.8-7.2,10.6-11.8,16.5-7.8c0.7,0.5,0.8,1,0.7,1.7c-0.2,1.1-1.1,0.7-1.6,0.5c-1.2-0.5-2.4-0.6-3.7-0.6c-3.6-0.1-7.2-0.1-8.6,4
		c-1.4,4.1-1.2,8.3,2.2,11.5c2.2,2.1,4.8,3.9,7.3,5.8c5.3,4.1,6.6,9.5,5.4,15.9c-1.2,6.8-7.9,8.6-12.5,8.4c-1.5-0.1-2.9-0.6-4.4-1
		c-1.2-0.3-1.8-0.9-1.5-2.1c0.5-1.8,1.6-0.3,2.1-0.2c1.7,0.5,3.4,0.6,5.1,0.6C13.5,208.6,16.2,205.8,16.2,199.5z"/>
	<path class="st4" d="M78.5,174.9c0.1,2.3,1.3,5.2,4,7.3c2.1,1.6,4.2,3.2,6.3,4.8c5.8,4.3,6.6,10.3,5.3,16.6
		c-1,5.1-6.9,8.5-12.3,7.6c-1.6-0.2-3.1-0.8-4.7-1.1c-1.4-0.3-1.7-1.3-1.3-2.3c0.5-1.2,1.4-0.1,2,0.1c1.8,0.5,3.6,0.6,5.4,0.7
		c6.5,0.5,9.3-4.2,8.8-9.9c-0.3-4.2-1.9-8-5.8-10.4c-2.1-1.4-4.1-2.9-6-4.6c-4.4-3.8-5.7-10.6-3-15.7c2.9-5.4,9.9-5.8,14.9-4
		c0.8,0.3,1.4,1.1,1.1,1.9c-0.3,0.8-1.2,0.6-1.8,0.4c-1.7-0.8-3.4-0.6-5.1-0.6C81,165.7,78.4,168.4,78.5,174.9z"/>
	<path class="st4" d="M28,187.3c-0.1,3.8-0.1,7.6,0.7,11.3c1.7,8.1,7.1,11.6,15.2,9.8c0.9-0.2,2.1-1.2,2.5,0.2
		c0.4,1.4-0.9,1.8-2.1,2.1c-9,2.1-15.5-1.5-17.8-10.4c-2.3-9-2.3-18.2,0.2-27.1c2.3-8.2,9.8-11.9,17.9-9.4c1,0.3,2.1,0.7,1.9,2
		c-0.2,1.2-1.2,0.6-1.9,0.5c-10.5-2-15.5,1.9-16.4,13.1C27.8,182,28,184.6,28,187.3z"/>
	<path class="st7" d="M343.2,193c-1.9,0.3-1.1,1.8-1.1,2.7c-0.1,4.3,0,8.5-0.1,12.8c0,0.9,0.5,2.2-1.3,2.2c-1.6-0.1-1.4-1.3-1.4-2.3
		c0-14.8,0-29.7,0-44.5c0-1.2-0.1-2.5,1.7-2.3c1.7,0.2,1,1.6,1,2.4c0.1,8.3,0,16.6,0.1,24.9c0,0.9-0.9,2.5,1.2,2.5
		C343.7,191.9,343.7,192.5,343.2,193z"/>
	<path class="st8" d="M141.7,181.4c1.6-3.1,4-4,6.7-4.5c0.9-0.2,1.6-0.1,1.8,1c0.2,1.1-0.3,1.6-1.5,1.8c-6.6,1.1-7.3,2-7.3,8.6
		c0,6.7,0,13.3,0,20c0,0.9,0.8,2.5-1.3,2.4c-1.9-0.1-1.4-1.6-1.4-2.6c0-9.4,0-18.9,0-28.3c0-1-0.7-2.8,0.9-2.9
		c1.7-0.1,0.8,1.8,1.2,2.7C141,180.1,141.2,180.5,141.7,181.4z"/>
	<path class="st9" d="M324.7,181.3c1.6-2.8,3.9-4,6.6-4.4c0.8-0.1,1.7-0.4,1.7,0.9c0,1,0.1,1.6-1.3,1.8c-6.5,1-7.1,1.8-7.2,8.3
		c0,6.8,0,13.6,0,20.3c0,1,0.5,2.5-1.4,2.5c-2.1,0-1.2-1.6-1.2-2.5c-0.1-9.4-0.1-18.8,0-28.3c0-1-0.8-2.8,0.6-2.9
		c1.9-0.3,1.1,1.8,1.5,2.8C324.1,180.1,324.3,180.4,324.7,181.3z"/>
	<path class="st6" d="M343.2,193c0-0.6,0.1-1.1,0.1-1.7c8.6-12,10.7-14.4,14.2-14.4c-3.3,4-6.1,8-9.4,11.5c-2.7,2.8-2,5.1-0.1,7.7
		c3.1,4.2,6,8.4,9,12.6c0.4,0.5,1,1,0.8,1.9c-1.2,0.3-2.5,0.6-3.4-0.7C350.8,204.1,346.3,199,343.2,193z"/>
	<path class="st10" d="M297.6,90.1c1.1-8.1,3.5-15.8,7.7-22.9c1.4-2.4,3.7-3.5,6.4-2.6c2.8,1,2.4,3.5,2.1,5.9
		c-1.1,8.5-4.1,16.4-7.8,24.1c-1.2,2.4-3.2,1.9-5,1.9c-1.8,0.1-2.5-1.3-2.8-2.9C297.8,92.5,297.7,91.3,297.6,90.1z"/>
	<path class="st11" d="M435.2,111.7c6.6,0,13.2,0,19.7,0c4.8,0,6.8,2.1,6.1,6.8c-1.7,11.1-5.7,21.4-12.3,30.5
		c-2.7,3.7-5.7,4.9-9.8,0.6c-9.2-9.8-18.7-19.3-28.2-28.8c-1.6-1.6-2.6-3.2-1.8-5.5c0.9-2.5,2.9-3.4,5.3-3.4c7-0.1,13.9,0,20.9,0
		C435.2,111.8,435.2,111.8,435.2,111.7z"/>
	<path class="st11" d="M394.3,153.3c0-7,0-14,0-20.9c0-2.4,0.5-4.3,2.9-5.3c2.4-1,4.4-0.2,6.1,1.6c9.8,9.9,19.6,19.8,29.3,29.8
		c2.4,2.4,2.2,5.5-0.3,7.8c-9,8.3-20,12.1-31.9,13.8c-4.3,0.6-6.1-1.3-6.1-5.7C394.3,167.2,394.3,160.3,394.3,153.3z"/>
	<path class="st11" d="M399.9,31.6c6.2,1.1,12.5,2.5,18.5,5.4c4.3,2.1,8.5,4.4,12.3,7.2c4.1,3,4.4,5,1.3,8.9
		c-4.8,6.1-10.8,11.1-16.1,16.7c-4.2,4.5-9,8.4-12.8,13.4c-1.4,1.8-3.3,2.5-5.5,1.8c-2.2-0.7-3.3-2.4-3.3-4.7
		c-0.1-3.8-0.2-7.7-0.2-11.5c0-10.4-0.1-20.8-0.1-31.2C394,33.6,396.1,31.4,399.9,31.6z"/>
	<path class="st12" d="M169.6,198.5c0.2,2.4-0.1,4.3-0.8,6.1c-1.3,3.2-3.8,4.3-7.2,4c-2.7-0.3-4-1.8-4.6-4.3c-0.8-3.1-0.4-6,2.4-7.9
		c2.8-1.9,6.1-2,9.3-1.5C170.9,195.3,169.2,197.6,169.6,198.5z"/>
	<path class="st12" d="M235.2,191.3c-0.7,0-1.4,0-2.1,0c-5.4,0-5.8-0.5-4.3-5.8c0.4-1.7,1-3.3,2.2-4.6c3-3.5,8.1-2.7,9.9,1.4
		c1,2.4,0.8,5,1.4,7.4c0.3,1.1-0.2,1.7-1.5,1.6C238.9,191.3,237,191.3,235.2,191.3z"/>
	<path class="st11" d="M310.7,193.8c0.2,3.1,0.1,6.2-0.7,9.2c-1,3.8-3.4,5.6-7.1,5.6c-3.9,0-6.4-1.7-7.2-5.5
		c-1.4-6.2-1.4-12.5,0-18.8c0.8-3.8,3.3-5.5,7.2-5.5c3.8,0,6.1,1.9,7.1,5.7c0.3,1.1,0.6,2.2,0.6,3.4
		C310.7,189.8,310.7,191.8,310.7,193.8z"/>
</g>
</svg>
